<svg id="Capa_1" enable-background="new 0 0 512 512" height="512" viewBox="0 0 512 512" width="512" xmlns="http://www.w3.org/2000/svg"><g><g><g><g><path d="m304.398 17.726s52.04-28.341 101.591 19.915-23.217 150.898 21.975 188.431c15.818 13.137 14.839 28.307 6.884 42.479-18.713 33.337-63.564 40.82-92.821 16.212l-73.423-61.755z" fill="#a34f41"/><path d="m434.848 268.551c-13.823 24.623-41.89 35.138-67.411 29.051 15.714-3.731 29.97-13.633 38.625-29.051 7.958-14.171 8.94-29.347-6.88-42.482-45.198-37.526 27.571-140.17-21.981-188.433-17.236-16.792-34.778-24.306-50.323-26.969 19.772-3.308 49.869-1.501 79.11 26.969 49.552 48.263-23.217 150.907 21.981 188.433 15.809 13.136 14.836 28.311 6.879 42.482z" fill="#873f30"/></g><g><path d="m377.183 172.454c4.915-13.637 7.6-28.34 7.6-43.671 0-71.125-57.658-128.783-128.783-128.783s-128.783 57.658-128.783 128.783c0 15.331 2.685 30.034 7.6 43.671z" fill="#ba5d4f"/></g><g><g><g><path d="m410.52 441.281v70.719h-309.043v-70.719c0-73.211 59.349-132.559 132.559-132.559h43.923c73.212-.001 132.561 59.348 132.561 132.559z" fill="#eff5f6"/><path d="m410.52 441.285v70.711h-35.812v-70.711c0-73.213-59.35-132.563-132.553-132.563h35.802c73.214 0 132.563 59.349 132.563 132.563z" fill="#cbe5e7"/><path d="m281.73 272.806v39.454c-7.785 3.514-16.507 5.485-25.729 5.485s-17.955-1.97-25.74-5.485v-39.454z" fill="#f9a08f"/><g><g><g><path d="m263.726 341.835v170.165h-15.453v-170.165c0-4.265 3.461-7.726 7.726-7.726 4.266-.001 7.727 3.461 7.727 7.726z" fill="#cbe5e7"/></g><path d="m256.001 346.985c-21.568 0-38.228-13.673-45.333-20.66-2.376-2.337-3.476-5.671-2.931-8.959l7.568-45.65s19.991 11.923 40.696 11.923z" fill="#24d1f8"/><path d="m255.998 346.985c21.568 0 38.228-13.673 45.333-20.66 2.376-2.337 3.476-5.671 2.931-8.959l-7.568-45.65s-19.991 11.923-40.696 11.923z" fill="#21c1f8"/><path d="m301.327 326.327c-5.648 5.546-17.33 15.322-32.723 19.093 5.321-3.547 9.501-7.227 12.284-9.939 2.508-2.446 3.66-5.923 3.089-9.358l-7.646-45.751c11.764-3.527 20.368-8.655 20.368-8.655l7.564 45.649c.54 3.293-.561 6.626-2.936 8.961z" fill="#1faaee"/></g></g><g><g><g><g><circle cx="357.953" cy="176.949" fill="#f9a08f" r="32.204"/></g><g><circle cx="154.044" cy="176.949" fill="#f9a08f" r="32.204"/></g></g></g></g><path d="m348.847 134.613v61.863c0 51.205-40.947 93.627-92.152 94.011-51.602.372-93.553-41.331-93.553-92.846v-63.027c0-51.28 41.579-92.846 92.859-92.846 25.646 0 48.852 10.395 65.652 27.195 16.799 16.811 27.194 40.016 27.194 65.65z" fill="#fdb0a0"/><path d="m348.848 134.617v8.528c-64.093-2.98-103.331-25.838-125.375-45.219-13.759-12.1-22.678-24.295-28.195-33.552 16.274-14.088 37.505-22.605 60.722-22.605 25.648 0 48.854 10.388 65.657 27.191 16.792 16.812 27.191 40.019 27.191 65.657z" fill="#f9a08f"/><g id="XMLID_562_"><path d="m299.663 182.207c-4.268 0-7.772-3.459-7.772-7.726s3.414-7.726 7.682-7.726h.09c4.268 0 7.726 3.459 7.726 7.726s-3.458 7.726-7.726 7.726z" fill="#873f30"/></g><g id="XMLID_397_"><path d="m212.424 182.208c-.03 0-.06 0-.091-.001-4.267-.048-7.73-3.547-7.682-7.814.049-4.237 3.455-7.639 7.68-7.639h.091l.088.001c4.267.049 7.686 3.547 7.637 7.815-.047 4.237-3.498 7.638-7.723 7.638z" fill="#873f30"/></g></g></g><g><g><g><g><path d="m88.147 512h65.696c6.488 0 11.361-5.925 10.108-12.291l-1.041-5.288c-.354-1.798-.222-3.658.383-5.388l6.189-17.711c4.395-12.577 6.64-25.805 6.64-39.128v-111.059c0-7.318-5.623-13.614-12.933-13.959-7.804-.368-14.247 5.851-14.247 13.575v-28.969c0-7.506-6.085-13.59-13.59-13.59-7.505 0-13.59 6.084-13.59 13.59v-6.71c0-7.506-6.084-13.59-13.59-13.59-7.506 0-13.59 6.084-13.59 13.59v14.638c0-7.506-6.084-13.59-13.59-13.59-7.506 0-13.59 6.085-13.59 13.59v61.138c-.25-8.487-7.192-15.295-15.74-15.295-8.706 0-15.764 7.058-15.764 15.764v62.766c0 5.838 1.894 11.518 5.398 16.187l35.708 47.582c1.819 2.424 2.478 5.525 1.803 8.48l-.702 3.07c-1.475 6.45 3.426 12.598 10.042 12.598z" fill="#24d1f8"/><path d="m176.118 321.138v111.055c0 13.326-2.24 26.557-6.636 39.132l-6.188 17.71c-.605 1.731-.737 3.591-.382 5.39l1.041 5.281c1.255 6.367-3.618 12.294-10.107 12.294h-14.65l-3.344-16.967c-.433-2.197-.272-4.469.467-6.583l5.984-17.125c4.396-12.576 6.637-25.807 6.637-39.132v-111.437c0-7.734 6.45-13.946 14.255-13.574 7.303.347 12.923 6.642 12.923 13.956z" fill="#21c1f8"/></g></g></g><g><g><g><path d="m461.255 345.58c-8.963-.508-16.399 6.48-16.658 15.269v-61.138c0-7.506-6.084-13.59-13.59-13.59-7.505 0-13.59 6.084-13.59 13.59v-14.638c0-7.506-6.084-13.59-13.59-13.59-7.506 0-13.59 6.084-13.59 13.59v6.71c0-7.506-6.084-13.59-13.59-13.59-7.506 0-13.59 6.084-13.59 13.59v28.969c0-7.724-6.443-13.942-14.247-13.575-7.31.344-12.933 6.641-12.933 13.959v111.057c0 13.323 2.245 26.551 6.64 39.129l6.189 17.711c.605 1.73.737 3.59.383 5.388l-1.041 5.288c-1.253 6.366 3.62 12.291 10.108 12.291h65.696c6.616 0 11.517-6.148 10.043-12.598l-.702-3.07c-.675-2.954-.016-6.056 1.803-8.48l35.708-47.582c3.504-4.669 5.398-10.349 5.398-16.187v-62.335c-.001-8.426-6.434-15.692-14.847-16.168z" fill="#24d1f8"/><path d="m476.103 361.752v62.335c0 5.833-1.892 11.519-5.4 16.179l-35.706 47.592c-1.818 2.423-2.477 5.523-1.803 8.475l.701 3.071c1.472 6.449-3.428 12.595-10.043 12.595h-18.552l-3.556-15.543c-.693-3.03-.017-6.212 1.848-8.699l35.63-47.491c3.508-4.661 5.4-10.346 5.4-16.179v-62.772c0-.19 0-.391-.011-.581.307-8.752 7.751-15.682 16.696-15.146 8.392.503 14.796 7.757 14.796 16.164z" fill="#21c1f8"/></g></g></g></g></g><path d="m207.6 41.767s27.738 80.575 155.456 80.575l-27.18-80.575s-77.483-44.897-128.276 0z" fill="#ba5d4f"/><g><path d="m363.056 130.068c-68.384 0-108.834-22.956-130.725-42.213-24.158-21.251-31.726-42.672-32.036-43.573-1.389-4.035.756-8.432 4.79-9.821 4.029-1.385 8.413.748 9.812 4.766.123.342 6.993 19.146 28.356 37.652 28.499 24.688 69.927 37.737 119.803 37.737 4.268 0 7.726 3.459 7.726 7.726.001 4.268-3.458 7.726-7.726 7.726z" fill="#a34f41"/></g></g><g><path d="m256.001 249.928c-18.462 0-33.444-14.449-34.109-32.892-.154-4.265 3.179-7.846 7.443-8 4.266-.143 7.846 3.178 7.999 7.443.364 10.092 8.563 17.997 18.666 17.997s18.302-7.904 18.665-17.996c.153-4.264 3.734-7.563 7.999-7.444 4.265.154 7.598 3.735 7.444 7.999-.662 18.444-15.644 32.893-34.107 32.893z" fill="#fc7c6a"/></g></g><g><g><g><g><g><g><g><path d="m90.914 297.471v68.692c0 4.237 3.273 7.927 7.508 8.043 4.375.12 7.945-3.386 7.945-7.723v-69.012c0-4.267-3.459-7.726-7.726-7.726-4.268 0-7.727 3.459-7.727 7.726z" fill="#1faaee"/></g><g><path d="m117.41 292.369v73.795c0 4.237 3.273 7.927 7.508 8.043 4.375.12 7.945-3.386 7.945-7.723v-74.115c0-4.267-3.459-7.726-7.726-7.726-4.268 0-7.727 3.459-7.727 7.726z" fill="#1faaee"/></g><g><path d="m143.906 312.779v53.438c0 4.114 3.102 7.708 7.207 7.977 4.5.295 8.245-3.273 8.245-7.709v-53.705c0-4.267-3.459-7.726-7.726-7.726-4.267-.002-7.726 3.457-7.726 7.725z" fill="#1faaee"/></g></g></g></g></g><g><path d="m72.144 345.871c-4.267 0-7.726 3.459-7.726 7.726v68.609c0 4.275 3.461 7.726 7.726 7.726s7.726-3.451 7.726-7.726v-68.609c0-4.267-3.459-7.726-7.726-7.726z" fill="#1faaee"/></g></g><g><g><g><g><g><g><path d="m421.086 297.471v68.692c0 4.237-3.272 7.927-7.508 8.043-4.375.12-7.945-3.386-7.945-7.723v-69.012c0-4.267 3.459-7.726 7.726-7.726 4.268 0 7.727 3.459 7.727 7.726z" fill="#1faaee"/></g><g><path d="m394.59 292.369v73.795c0 4.237-3.272 7.927-7.508 8.043-4.375.12-7.945-3.386-7.945-7.723v-74.115c0-4.267 3.459-7.726 7.726-7.726 4.268 0 7.727 3.459 7.727 7.726z" fill="#1faaee"/></g><g><path d="m368.094 312.779v53.438c0 4.114-3.102 7.708-7.207 7.977-4.5.295-8.245-3.273-8.245-7.709v-53.705c0-4.267 3.459-7.726 7.726-7.726 4.267-.002 7.726 3.457 7.726 7.725z" fill="#1faaee"/></g></g></g></g></g><g><path d="m439.856 345.871c4.267 0 7.726 3.459 7.726 7.726v68.609c0 4.275-3.461 7.726-7.726 7.726s-7.726-3.451-7.726-7.726v-68.609c0-4.267 3.459-7.726 7.726-7.726z" fill="#1faaee"/></g></g></g></g></svg>