<svg xmlns="http://www.w3.org/2000/svg" xmlns:xlink="http://www.w3.org/1999/xlink" viewBox="0 0 566.93 425.2"><defs><style>.cls-1,.cls-11,.cls-3,.cls-4,.cls-8{fill:#fff;}.cls-1,.cls-11,.cls-14{stroke:#fff;stroke-miterlimit:10;}.cls-1,.cls-14{stroke-width:4px;}.cls-2{isolation:isolate;}.cls-4{font-size:57.14px;font-family:QanelasSoft-ExtraBold, Qanelas Soft;font-weight:800;}.cls-5{letter-spacing:-0.08em;}.cls-6{letter-spacing:-0.01em;}.cls-7{letter-spacing:0em;}.cls-8{font-size:25.37px;font-family:QanelasSoft-Light, Qanelas Soft;font-weight:300;}.cls-9{letter-spacing:0em;}.cls-10{letter-spacing:-0.01em;}.cls-12{clip-path:url(#clip-path);}.cls-13{opacity:0.35;}.cls-13,.cls-16{mix-blend-mode:multiply;}.cls-14{fill:none;}.cls-15{clip-path:url(#clip-path-2);}.cls-16{opacity:0.32;}</style><clipPath id="clip-path"><path class="cls-1" d="M219.82,167.47c-13.25-12.11-28.26-12.1-39.47-9.38a72.71,72.71,0,0,1-15.93,2L163.52,266a6.61,6.61,0,0,1,6.46,5.55c.21,1.09.4,2.24.59,3.47,2.75,17.85,5.69,31.2,16.68,33.94s16.48-15.5,20.8-34.73,4.51-28.65,10.6-35.71S244.94,190.43,219.82,167.47Z"/></clipPath><clipPath id="clip-path-2"><path class="cls-1" d="M146.28,158.09c-11.22-2.72-26.22-2.73-39.48,9.38-25.11,23-4.9,64,1.18,71s6.28,16.48,10.6,35.71,9.81,37.48,20.79,34.73,13.94-16.09,16.68-33.94c.19-1.23.39-2.38.59-3.47a6.64,6.64,0,0,1,6.88-5.55l.9-105.87A72.53,72.53,0,0,1,146.28,158.09Zm-3.17,18.3a4.14,4.14,0,0,1-4.63,3.55c-.81-.1-18.72-2.08-23.75,17.47a4.14,4.14,0,0,1-4,3.11,4,4,0,0,1-1-.13,4.15,4.15,0,0,1-3-5c5.52-21.43,23.9-24.82,32.84-23.62A4.14,4.14,0,0,1,143.11,176.39Z"/></clipPath></defs><g class="cls-2"><g id="Layer_1" data-name="Layer 1"><rect class="cls-3" x="297.42" y="124.76" width="6.58" height="191.81"/><text class="cls-4" transform="translate(344.71 192.42)"><tspan class="cls-5">T</tspan><tspan x="24" y="0">oo</tspan><tspan class="cls-6" x="91.43" y="0">o</tspan><tspan x="124.57" y="0">th</tspan><tspan class="cls-7" x="0" y="53.57">F</tspan><tspan x="28.57" y="53.57">airy</tspan></text><text class="cls-8" transform="translate(346.96 286.37)"><tspan class="cls-9">D</tspan><tspan x="18.97" y="0">enti</tspan><tspan class="cls-10" x="59.99" y="0">s</tspan><tspan x="71.48" y="0">tries</tspan></text><path class="cls-11" d="M68.38,281.59a3.32,3.32,0,0,0,3.31,3.32A16.58,16.58,0,0,0,86.38,276a16.6,16.6,0,0,0,14.26-11.15,16.6,16.6,0,0,0,14.16-16.38v-6.63a10,10,0,0,1,10-9.93h0l.17-23.73a2.2,2.2,0,0,0-.17.25,22,22,0,0,0-2.83-3.51,20.86,20.86,0,0,0-14.84-6.16,38.71,38.71,0,0,0-38.69,38.63v13.26ZM75,277.72l0-27.05V237.42a32.07,32.07,0,0,1,32.06-32,14.34,14.34,0,0,1,14.34,14.32v5.9a16.62,16.62,0,0,0-13.27,16.23v6.63a10,10,0,0,1-6.63,9.36v-16a3.32,3.32,0,0,0-6.63,0v17.67a10,10,0,0,1-6.64,9.37v-.54l0-17.67a3.32,3.32,0,1,0-6.63,0v17.67A10,10,0,0,1,75,277.72Z"/><path class="cls-11" d="M261.27,251V237.7a38.72,38.72,0,0,0-38.69-38.64,21.05,21.05,0,0,0-17.66,9.67l-.18-.25.17,23.73h0a10,10,0,0,1,10,9.94v6.62A16.59,16.59,0,0,0,229,265.15a16.6,16.6,0,0,0,14.26,11.15A16.59,16.59,0,0,0,258,285.19a3.31,3.31,0,0,0,3.31-3.31ZM248,268.63V251a3.31,3.31,0,1,0-6.62,0v18.21a10,10,0,0,1-6.64-9.37V242.13a3.32,3.32,0,0,0-6.63,0l0,16a10,10,0,0,1-6.64-9.37v-6.63a16.59,16.59,0,0,0-13.27-16.22V220a14.34,14.34,0,0,1,14.35-14.32,32.07,32.07,0,0,1,32,32V251l0,27.05A10,10,0,0,1,248,268.63Z"/><path class="cls-3" d="M219.82,167.47c-13.25-12.11-28.26-12.1-39.47-9.38a72.71,72.71,0,0,1-15.93,2L163.52,266a6.61,6.61,0,0,1,6.46,5.55c.21,1.09.4,2.24.59,3.47,2.75,17.85,5.69,31.2,16.68,33.94s16.48-15.5,20.8-34.73,4.51-28.65,10.6-35.71S244.94,190.43,219.82,167.47Z"/><g class="cls-12"><g class="cls-13"><path class="cls-3" d="M166.87,166.67c11.36-3.16,23.41-5,34.92-2.51s22.42,10.2,26.27,21.34c1.52,4.38,1.9,9.05,2.15,13.68.36,6.7.45,13.56-1.58,20-3.61,11.4-13.33,19.77-18.74,30.44-8.62,17-5.52,37.91-13.34,55.27a18.38,18.38,0,0,1-4.68,6.78c-4.6,3.81-11.8,3.7-15.77,8.17"/><path class="cls-3" d="M168.33,172c16.58-4.5,37.7-6.72,50.19,7.84,5.93,6.91,6.32,16.16,6.39,24.86.07,9.81-2.74,17.37-8.34,25.29-4.88,6.89-10.17,13.3-13.39,21.19-3.38,8.29-4.57,17.12-5.76,25.92s-2.12,18.55-6.34,26.51c-3.83,7.24-13.23,6.8-18.87,12.33-5.07,5,2.71,12.74,7.78,7.78,2.34-2.3,5.56-2.94,8.53-4.1a21.77,21.77,0,0,0,9-5.85c5.07-5.85,7.26-14.4,8.71-21.82,3-15.66,2.85-31.88,12-45.6,4.2-6.27,9.3-12,12.77-18.7,3.84-7.47,5.05-15.53,4.89-23.87-.3-15.47-3.72-29-17-38.16-15.76-10.89-35.91-9-53.45-4.23-6.83,1.85-3.93,12.46,2.92,10.61Z"/></g></g><path class="cls-14" d="M219.82,167.47c-13.25-12.11-28.26-12.1-39.47-9.38a72.71,72.71,0,0,1-15.93,2L163.52,266a6.61,6.61,0,0,1,6.46,5.55c.21,1.09.4,2.24.59,3.47,2.75,17.85,5.69,31.2,16.68,33.94s16.48-15.5,20.8-34.73,4.51-28.65,10.6-35.71S244.94,190.43,219.82,167.47Z"/><path class="cls-3" d="M146.28,158.09c-11.22-2.72-26.22-2.73-39.48,9.38-25.11,23-4.9,64,1.18,71s6.28,16.48,10.6,35.71,9.81,37.48,20.79,34.73,13.94-16.09,16.68-33.94c.19-1.23.39-2.38.59-3.47a6.64,6.64,0,0,1,6.88-5.55l.9-105.87A72.53,72.53,0,0,1,146.28,158.09Zm-3.17,18.3a4.14,4.14,0,0,1-4.63,3.55c-.81-.1-18.72-2.08-23.75,17.47a4.14,4.14,0,0,1-4,3.11,4,4,0,0,1-1-.13,4.15,4.15,0,0,1-3-5c5.52-21.43,23.9-24.82,32.84-23.62A4.14,4.14,0,0,1,143.11,176.39Z"/><g class="cls-15"><g class="cls-16"><path class="cls-3" d="M136.78,184.15a20.93,20.93,0,0,0-16.21,10.5"/><path class="cls-3" d="M136.78,180.65a25.08,25.08,0,0,0-19.24,12.23c-2.29,3.89,3.76,7.42,6,3.53a17.7,17.7,0,0,1,13.19-8.76c4.43-.49,4.48-7.49,0-7Z"/></g><g class="cls-16"><path class="cls-3" d="M150.85,189.19c4.5,0,4.51-7,0-7s-4.51,7,0,7Z"/></g><g class="cls-16"><path class="cls-3" d="M159.49,261.7c-5.49,4.14-7.65,11.3-8.87,18.07s-1.94,13.88-5.64,19.68c-1.49,2.34-3.82,4.55-6.6,4.41-2.48-.12-4.46-2.09-5.95-4.08-9.26-12.32-9.29-29-14.17-43.66a67.23,67.23,0,0,0-7.48-15.45,135.37,135.37,0,0,0-10.32-13.2l-27-31.74"/><path class="cls-3" d="M157,259.23c-10.29,8.51-8.74,22.1-12.73,33.61-1.46,4.19-4.77,10.14-9.09,4.77a35.59,35.59,0,0,1-5.24-9.82c-2.31-6.26-3.53-12.86-4.92-19.37-3-13.84-7.85-25.84-16.73-37-10.39-13-21.59-25.49-32.4-38.18-2.93-3.44-7.86,1.53-5,5l18,21.16c6,7,12.48,13.91,17.74,21.52,9.53,13.8,10.54,29.45,15.25,45,2.75,9.06,12.61,30.21,24.21,17.69,10.17-11,3.94-29.62,15.79-39.42,3.48-2.88-1.5-7.8-5-4.95Z"/></g></g><path class="cls-14" d="M146.28,158.09c-11.22-2.72-26.22-2.73-39.48,9.38-25.11,23-4.9,64,1.18,71s6.28,16.48,10.6,35.71,9.81,37.48,20.79,34.73,13.94-16.09,16.68-33.94c.19-1.23.39-2.38.59-3.47a6.64,6.64,0,0,1,6.88-5.55l.9-105.87A72.53,72.53,0,0,1,146.28,158.09Zm-3.17,18.3a4.14,4.14,0,0,1-4.63,3.55c-.81-.1-18.72-2.08-23.75,17.47a4.14,4.14,0,0,1-4,3.11,4,4,0,0,1-1-.13,4.15,4.15,0,0,1-3-5c5.52-21.43,23.9-24.82,32.84-23.62A4.14,4.14,0,0,1,143.11,176.39Z"/><circle class="cls-11" cx="147.87" cy="178.02" r="2.59"/><path class="cls-11" d="M143.58,144.06c5.77,2.52,13.32,3.9,21.27,3.89s15.49-1.4,21.26-3.92c9.58-4.2,11-10,11-13.09s-1.44-8.88-11-13.07c-5.77-2.51-13.32-3.9-21.27-3.89s-15.49,1.4-21.25,3.92c-9.58,4.2-11,10-11,13.09S134,139.87,143.58,144.06Zm4.08-16.82c4.43-1.95,10.69-3.06,17.17-3.07s12.74,1.11,17.18,3c3.74,1.64,4.91,3.32,4.91,3.74s-1.16,2.1-4.91,3.74c-4.43,1.95-10.69,3.07-17.17,3.07s-12.74-1.1-17.18-3c-3.74-1.64-4.91-3.31-4.91-3.74s1.16-2.1,4.91-3.74Z"/><path class="cls-3" d="M157.29,233.14c2.55-.75,5.25.15,7.61,1.47s4.53,3.07,7,4.17c5,2.28,10.81,1.61,15.93-.42"/><path class="cls-3" d="M158.22,236.51c5.3-.9,10.67,5.48,15.82,6.67,4.94,1.14,10,.26,14.69-1.44,4.2-1.53,2.39-8.3-1.86-6.75-6.48,2.35-11.59,2-17.43-1.68-4.25-2.67-8-4.41-13.08-3.55-4.43.75-2.55,7.5,1.86,6.75Z"/><path class="cls-3" d="M154.52,224.48c4.46-.66,9-1.31,13.4-.14,2.44.65,4.74,1.86,7.14,2.69a24.75,24.75,0,0,0,24.71-5.6"/><path class="cls-3" d="M155.45,227.86c5-.73,9.59-1,14.42.84,3.87,1.49,7.44,2.84,11.64,3,7.77.36,15-2.78,20.73-7.84,3.39-3-1.58-7.91-5-5a21.56,21.56,0,0,1-22,4.43c-3.31-1.19-6.3-2.6-9.84-3-4-.45-7.92.16-11.85.73-4.44.65-2.55,7.39,1.86,6.75Z"/><path class="cls-3" d="M153.52,215.1A32.74,32.74,0,0,1,171.8,214c3.88.9,7.68,2.51,11.64,2.63,3.72.12,7.37-1.09,10.87-2.55,5.18-2.15,10.32-5,13.92-9.76"/><path class="cls-3" d="M154.45,218.47a30.89,30.89,0,0,1,16.42-1.06c5.18,1.13,9.93,3.18,15.34,2.59a38.88,38.88,0,0,0,24.49-13.17c2.83-3.46-2.1-8.44-4.95-5-6.21,7.61-17.5,13-27.23,10.38-8.94-2.38-16.92-3.47-25.93-.54-4.26,1.4-2.44,8.16,1.86,6.75Z"/><path class="cls-3" d="M151.75,204.23c6.49-3,13.6-4.56,20.55-3.54,2.37.35,4.71,1,7.09,1.28,10.37,1.27,20.77-4.59,27.66-13.45"/><path class="cls-3" d="M153.51,207.25c5.79-2.53,12-4,18.34-3.07,4.92.69,9.36,1.87,14.37,1.14,9.39-1.36,17.44-7.08,23.3-14.33,2.81-3.47-2.11-8.45-5-5-6.36,7.87-15.51,13.94-26,12.29-4.78-.76-9.2-1.75-14.09-1.25A48.16,48.16,0,0,0,150,201.21c-4.12,1.8-.56,7.83,3.53,6Z"/><path class="cls-3" d="M154.42,193.48a47.33,47.33,0,0,1,17.72-4.4c3.83-.19,7.68.11,11.48-.44,8.68-1.25,16.75-7.12,21.37-15.53"/><path class="cls-3" d="M156.18,196.5a46.51,46.51,0,0,1,17.88-4c5.15-.13,10.26,0,15.2-1.66a35.1,35.1,0,0,0,18.75-16c2.27-3.91-3.78-7.44-6-3.54-4.57,7.88-11.95,13.42-21.21,14.06-4.72.33-9.39,0-14.09.75a55.13,55.13,0,0,0-14,4.31c-4.11,1.82-.55,7.85,3.53,6Z"/><path class="cls-3" d="M157.68,244.82c5.08-.5,9.66,3.18,14.53,4.91a19.91,19.91,0,0,0,14.58-.54"/><path class="cls-3" d="M157.68,248.32c5.53-.11,10,3.91,15.2,5.27a24,24,0,0,0,14.84-1c4.16-1.61,2.35-8.38-1.86-6.75-5.84,2.26-10.67,1.58-16.21-1-3.9-1.84-7.56-3.56-12-3.47s-4.52,7.1,0,7Z"/></g></g></svg>