<?xml version="1.0" encoding="utf-8"?>
<!-- Generator: Adobe Illustrator 24.2.3, SVG Export Plug-In . SVG Version: 6.00 Build 0)  -->
<svg version="1.1" id="Layer_1" xmlns="http://www.w3.org/2000/svg" xmlns:xlink="http://www.w3.org/1999/xlink" x="0px" y="0px"
	 viewBox="0 0 425.2 425.2" style="enable-background:new 0 0 425.2 425.2;" xml:space="preserve">
<style type="text/css">
	.st0{fill:url(#SVGID_1_);}
	.st1{fill:url(#SVGID_2_);}
	.st2{fill:#F15F24;}
	.st3{fill:none;}
	.st4{fill:#2A58AE;}
	.st5{clip-path:url(#SVGID_4_);}
	.st6{opacity:0.32;}
	.st7{fill:#064A72;}
	.st8{fill:#2A58AE;stroke:#2A58AE;stroke-miterlimit:10;}
	.st9{fill:#FFFFFF;}
	.st10{fill:none;stroke:#FFFFFF;stroke-width:3;stroke-miterlimit:10;}
	.st11{fill:url(#SVGID_5_);}
	.st12{fill:url(#SVGID_6_);}
	.st13{fill:url(#SVGID_7_);}
	.st14{fill:url(#SVGID_8_);}
	.st15{fill:url(#SVGID_9_);}
	.st16{fill:url(#SVGID_10_);}
	.st17{fill:url(#SVGID_11_);}
</style>
<linearGradient id="SVGID_1_" gradientUnits="userSpaceOnUse" x1="126.9" y1="932.15" x2="5.5" y2="932.15" gradientTransform="matrix(1 0 0 1 0 -652)">
	<stop  offset="0" style="stop-color:#2A58AE"/>
	<stop  offset="1" style="stop-color:#F15F24"/>
</linearGradient>
<path class="st0" d="M5.5,365.6c0,3.9,3.2,7.1,7.1,7.1l0,0c13.2,0,25.4-7.3,31.5-19.1c14-1.2,26-10.6,30.6-23.9
	c17.4-2.6,30.3-17.5,30.4-35.2v-14.3c0-11.8,9.6-21.3,21.4-21.3l0,0l0.4-51l-0.4,0.5c-1.7-2.7-3.8-5.3-6.1-7.6
	c-8.4-8.5-19.9-13.2-31.9-13.2c-45.8,0.1-82.9,37.2-83,83v28.5V365.6z M19.8,357.3v-58.1v-28.4c0.1-38,30.9-68.7,68.8-68.7
	c17,0.1,30.7,13.8,30.8,30.8v12.7c-16.6,3.4-28.5,17.9-28.5,34.8v14.2c0,9-5.7,17.1-14.2,20.1v-34.4c-0.2-3.9-3.5-7-7.5-6.8
	c-3.7,0.2-6.6,3.1-6.8,6.8v37.9c0,9-5.7,17.1-14.2,20.1v-1.2v-37.9c0.2-3.9-2.8-7.3-6.8-7.5c-3.9-0.2-7.3,2.8-7.5,6.8
	c0,0.2,0,0.5,0,0.7v38C33.9,346.2,28.2,354.2,19.8,357.3z"/>
<linearGradient id="SVGID_2_" gradientUnits="userSpaceOnUse" x1="298.3259" y1="932.75" x2="419.8259" y2="932.75" gradientTransform="matrix(1 0 0 1 0 -652)">
	<stop  offset="0" style="stop-color:#2A58AE"/>
	<stop  offset="1" style="stop-color:#F15F24"/>
</linearGradient>
<path class="st1" d="M419.7,299.8v-28.5c-0.1-45.8-37.3-82.9-83.1-83c-12,0-23.4,4.7-31.9,13.2c-2.3,2.3-4.3,4.8-6.1,7.5l-0.4-0.5
	l0.3,51l0,0c11.8,0,21.4,9.5,21.4,21.3l0,0V295c0,17.6,12.9,32.6,30.4,35.2c4.6,13.3,16.6,22.7,30.6,23.9
	c6.1,11.7,18.3,19.1,31.5,19.1c3.9,0,7.1-3.2,7.1-7.1l0,0L419.7,299.8z M391.3,337.7v-37.9c-0.2-3.9-3.5-7-7.5-6.8
	c-3.7,0.2-6.6,3.1-6.8,6.8v39.1c-8.5-3-14.2-11-14.3-20v-38c-0.2-3.9-3.5-7-7.5-6.8c-3.7,0.2-6.6,3.1-6.8,6.8v34.4
	c-8.5-3-14.2-11.1-14.2-20.1V281c0-16.9-11.9-31.5-28.5-34.9v-12.7c0.1-17,13.8-30.7,30.8-30.8c38,0,68.8,30.7,68.9,68.7v28.5v58.1
	C397,354.8,391.3,346.7,391.3,337.7z"/>
<path class="st2" d="M330.7,117.5c-28.5-26-60.7-26-84.8-20.1c-11.2,2.7-22.7,4.2-34.2,4.3L209.8,329c6.9,0.1,12.8,5.1,13.9,12
	c0.4,2.3,0.9,4.8,1.3,7.4c5.9,38.3,12.2,67,35.9,72.9s35.4-33.3,44.7-74.6c9.3-41.3,9.7-61.5,22.7-76.7
	C341.4,254.9,384.6,166.8,330.7,117.5z"/>
<path class="st3" d="M330.7,117.5c-28.5-26-60.7-26-84.8-20.1c-11.2,2.7-22.7,4.2-34.2,4.3L209.8,329c6.9,0.1,12.8,5.1,13.9,12
	c0.4,2.3,0.9,4.8,1.3,7.4c5.9,38.3,12.2,67,35.9,72.9s35.4-33.3,44.7-74.6c9.3-41.3,9.7-61.5,22.7-76.7
	C341.4,254.9,384.6,166.8,330.7,117.5z"/>
<path class="st4" d="M172.8,97.4c-24.1-5.8-56.4-5.9-84.8,20.1C34.1,166.8,77.5,254.9,90.5,270c13.1,15.2,13.5,35.4,22.8,76.7
	s21.1,80.5,44.7,74.6s29.9-34.5,35.9-72.9c0.4-2.6,0.8-5.1,1.3-7.4c1.2-7.2,7.5-12.3,14.8-12l1.9-227.3
	C198.7,101.9,185.6,100.5,172.8,97.4z M166,136.7c-0.7,4.8-5.1,8.2-9.9,7.6c-1.7-0.2-40.2-4.5-51,37.6c-1,3.9-4.5,6.6-8.5,6.7
	c-0.7,0-1.5-0.1-2.2-0.3c-4.7-1.2-7.6-6-6.4-10.8l0,0c11.9-46,51.3-53.3,70.5-50.7C163.2,127.4,166.6,131.8,166,136.7L166,136.7z"/>
<g>
	<g>
		<defs>
			<path id="SVGID_3_" d="M172.8,97.4c-24.1-5.8-56.4-5.9-84.8,20.1C34.1,166.8,77.5,254.9,90.5,270c13.1,15.2,13.5,35.4,22.8,76.7
				s21.1,80.5,44.7,74.6s29.9-34.5,35.9-72.9c0.4-2.6,0.8-5.1,1.3-7.4c1.2-7.2,7.5-12.3,14.8-12l1.9-227.3
				C198.7,101.9,185.6,100.5,172.8,97.4z M166,136.7c-0.7,4.8-5.1,8.2-9.9,7.6c-1.7-0.2-40.2-4.5-51,37.6c-1,3.9-4.5,6.6-8.5,6.7
				c-0.7,0-1.5-0.1-2.2-0.3c-4.7-1.2-7.6-6-6.4-10.8l0,0c11.9-46,51.3-53.3,70.5-50.7C163.2,127.4,166.6,131.8,166,136.7L166,136.7z
				"/>
		</defs>
		<clipPath id="SVGID_4_">
			<use xlink:href="#SVGID_3_"  style="overflow:visible;"/>
		</clipPath>
		<g class="st5">
			<g class="st6">
				<path class="st7" d="M152.4,147.4c-16.6,1.6-31.5,11.1-40,25.5c-3.9,6.6,6.4,12.7,10.3,6c6.2-10.8,17.2-18.1,29.6-19.6
					C159.9,158.5,160,146.5,152.4,147.4L152.4,147.4z"/>
			</g>
			<g class="st6">
				<path class="st7" d="M182.6,162.6c7.7,0,7.7-12,0-12S174.9,162.6,182.6,162.6z"/>
			</g>
			<g class="st6">
				<path class="st7" d="M196.9,315.7c-17.2,13.9-19.4,36.3-23.2,56.6c-1.5,7.9-6.3,34.2-18.5,32.1c-9.4-1.6-16.5-21.1-19.2-28.7
					c-7.8-21.6-9.9-44.8-16.8-66.6c-7.4-23.6-20.9-43.4-36.7-62.2c-20.5-24.3-41.3-48.5-61.9-72.7c-5-5.9-13.4,2.6-8.5,8.5
					c19.7,23,39.4,46,59.1,69.1c19.2,22.6,33.5,45.5,40.4,74.6c5.6,23.4,8.5,48.1,20.5,69.4c4.8,8.5,11.6,19.1,22.2,20.4
					c10.6,1.3,18.5-7.3,23-15.8c12.6-23.8,5.6-58,28.2-76.3C211.4,319.3,202.9,310.9,196.9,315.7L196.9,315.7z"/>
			</g>
		</g>
	</g>
</g>
<path class="st8" d="M172.8,97.4c-24.1-5.8-56.4-5.9-84.8,20.1C34.1,166.8,77.5,254.9,90.5,270c13.1,15.2,13.5,35.4,22.8,76.7
	s21.1,80.5,44.7,74.6s29.9-34.5,35.9-72.9c0.4-2.6,0.8-5.1,1.3-7.4c1.2-7.2,7.5-12.3,14.8-12l1.9-227.3
	C198.7,101.9,185.6,100.5,172.8,97.4z M166,136.7c-0.7,4.8-5.1,8.2-9.9,7.6c-1.7-0.2-40.2-4.5-51,37.6c-1,3.9-4.5,6.6-8.5,6.7
	c-0.7,0-1.5-0.1-2.2-0.3c-4.7-1.2-7.6-6-6.4-10.8l0,0c11.9-46,51.3-53.3,70.5-50.7C163.2,127.4,166.6,131.8,166,136.7L166,136.7z"/>
<circle class="st9" cx="176.2" cy="140.2" r="5.6"/>
<path class="st10" d="M94.9,322.9c0,0,36.2,33.7,110,33.7"/>
<path class="st10" d="M103.1,353.1c0,0,24.3,32.5,98.1,32.5"/>
<path class="st10" d="M105.6,383.2c0,0,24.3,32.5,98.1,32.5"/>
<linearGradient id="SVGID_5_" gradientUnits="userSpaceOnUse" x1="143.4" y1="691.15" x2="282.0169" y2="691.15" gradientTransform="matrix(1 0 0 1 0 -652)">
	<stop  offset="0" style="stop-color:#2A58AE"/>
	<stop  offset="1" style="stop-color:#F15F24"/>
</linearGradient>
<path class="st11" d="M167,67.3c12.4,5.4,28.6,8.4,45.6,8.4s33.3-3,45.6-8.4c20.5-9,23.6-21.5,23.6-28.1S278.9,20,258.3,11
	c-12.4-5.4-28.6-8.4-45.7-8.4s-33.3,3-45.6,8.4c-20.5,9-23.6,21.5-23.6,28.1S146.4,58.3,167,67.3z M175.8,31.1
	c9.5-4.2,23-6.6,36.9-6.6c13.9,0,27.3,2.4,36.9,6.5c8,3.4,10.5,7.1,10.5,8s-2.5,4.5-10.5,8c-9.5,4.2-23,6.6-36.9,6.6
	s-27.3-2.4-36.9-6.5c-8-3.5-10.5-7.1-10.5-8C165.2,38.3,167.7,34.7,175.8,31.1L175.8,31.1z"/>
<linearGradient id="SVGID_6_" gradientUnits="userSpaceOnUse" x1="196.2167" y1="918.0689" x2="262.2793" y2="918.0689" gradientTransform="matrix(1 0 0 1 0 -652)">
	<stop  offset="0" style="stop-color:#2A58AE"/>
	<stop  offset="1" style="stop-color:#F15F24"/>
</linearGradient>
<path class="st12" d="M198,264.3c11.8-2.2,22.6,11.2,33.7,14.1c10.6,2.8,21.7,0.9,31.9-2.8c7.2-2.6,4.1-14.2-3.2-11.5
	c-13.3,4.9-24.9,4.9-37.2-2.8c-9.1-5.7-17.3-10.5-28.4-8.4C187.3,254.2,190.5,265.7,198,264.3L198,264.3z"/>
<linearGradient id="SVGID_7_" gradientUnits="userSpaceOnUse" x1="190.3741" y1="892.8168" x2="288.2465" y2="892.8168" gradientTransform="matrix(1 0 0 1 0 -652)">
	<stop  offset="0" style="stop-color:#2A58AE"/>
	<stop  offset="1" style="stop-color:#F15F24"/>
</linearGradient>
<path class="st13" d="M192.1,245.7c11.8-1.7,22.1-2.1,33.3,2.4c7.6,3,14.8,5.5,23.1,5.9c16.2,0.8,31.5-5.7,43.4-16.4
	c5.8-5.1-2.7-13.5-8.5-8.5c-12.6,11.2-29.7,16-46,10.9c-7.8-2.4-14.7-6.3-22.9-7.3c-8.5-1.1-17.1,0.2-25.6,1.5
	C181.3,235.2,184.5,246.7,192.1,245.7L192.1,245.7z"/>
<linearGradient id="SVGID_8_" gradientUnits="userSpaceOnUse" x1="188.0678" y1="861.7355" x2="306.5089" y2="861.7355" gradientTransform="matrix(1 0 0 1 0 -652)">
	<stop  offset="0" style="stop-color:#2A58AE"/>
	<stop  offset="1" style="stop-color:#F15F24"/>
</linearGradient>
<path class="st14" d="M189.9,225.6c12-4.2,25-4.9,37.4-1.9c10.4,2.6,20.2,6.4,31.2,5.1c18.8-2.1,39.7-13.2,51.5-27.9
	c4.8-5.9-3.6-14.5-8.5-8.4c-12.2,15.2-36.1,27.7-55.8,23.7c-9.2-1.9-17.8-5.3-27.3-6.2c-10.7-0.8-21.5,0.6-31.6,4
	C179.5,216.4,182.6,228,189.9,225.6L189.9,225.6z"/>
<linearGradient id="SVGID_9_" gradientUnits="userSpaceOnUse" x1="184.1898" y1="831.2194" x2="303.9634" y2="831.2194" gradientTransform="matrix(1 0 0 1 0 -652)">
	<stop  offset="0" style="stop-color:#2A58AE"/>
	<stop  offset="1" style="stop-color:#F15F24"/>
</linearGradient>
<path class="st15" d="M187.6,201.6c12-5.3,25-8.5,38.1-7.2c10.9,1.1,20.7,4.4,31.8,3c20.1-2.6,37.6-14.9,50-30.5
	c4.8-5.9-3.6-14.5-8.5-8.5c-13.2,16.5-32.6,29.7-54.7,27.1c-11-1.3-21-4.2-32.2-3c-10.6,1.2-21,4.2-30.8,8.7c-7,3.1-1,13.4,6,10.3
	L187.6,201.6L187.6,201.6z"/>
<linearGradient id="SVGID_10_" gradientUnits="userSpaceOnUse" x1="189.9129" y1="803.3739" x2="299.6242" y2="803.3739" gradientTransform="matrix(1 0 0 1 0 -652)">
	<stop  offset="0" style="stop-color:#2A58AE"/>
	<stop  offset="1" style="stop-color:#F15F24"/>
</linearGradient>
<path class="st16" d="M193.3,178.5c11.5-5.2,24-8.2,36.6-8.7c10.7-0.4,21.4,0.3,31.9-2.7c18.2-5.1,32.9-18.3,42.2-34.5
	c3.8-6.7-6.5-12.7-10.3-6c-10,17.4-26.5,29.6-46.9,31c-9.7,0.7-19.4,0-29,1.4c-10.5,1.7-20.8,4.8-30.5,9.2
	C180.3,171.3,186.4,181.6,193.3,178.5L193.3,178.5z"/>
<linearGradient id="SVGID_11_" gradientUnits="userSpaceOnUse" x1="197.1905" y1="942.0358" x2="260.1267" y2="942.0358" gradientTransform="matrix(1 0 0 1 0 -652)">
	<stop  offset="0" style="stop-color:#2A58AE"/>
	<stop  offset="1" style="stop-color:#F15F24"/>
</linearGradient>
<path class="st17" d="M197.3,289.6c11.9-0.4,21.4,8.1,32.5,11.2c10.5,2.8,21.6,2.1,31.6-2c7.1-2.8,4-14.4-3.2-11.5
	c-12,4.7-22.9,3.8-34.4-1.7c-8.7-4-16.6-8.3-26.5-8C189.6,277.8,189.6,289.8,197.3,289.6L197.3,289.6z"/>
</svg>
