<?xml version="1.0" encoding="utf-8"?>
<!-- Generator: Adobe Illustrator 24.2.1, SVG Export Plug-In . SVG Version: 6.00 Build 0)  -->
<svg version="1.1" id="Layer_1" xmlns="http://www.w3.org/2000/svg" xmlns:xlink="http://www.w3.org/1999/xlink" x="0px" y="0px"
	 viewBox="0 0 425.2 425.2" style="enable-background:new 0 0 425.2 425.2;" xml:space="preserve">
<style type="text/css">
	.st0{fill:#FFFFFF;}
	.st1{clip-path:url(#SVGID_2_);}
	.st2{opacity:0.35;}
	.st3{clip-path:url(#SVGID_4_);}
	.st4{opacity:0.32;}
</style>
<g>
	<g id="Layer_1_1_">
		<path class="st0" d="M90.9,287.3c0,2.3,1.9,4.2,4.2,4.2h0c7.8,0,14.9-4.3,18.5-11.2c8.2-0.7,15.2-6.2,17.9-14
			c10.2-1.5,17.8-10.3,17.8-20.6v-8.3c0-6.9,5.6-12.5,12.5-12.5l0,0l0.2-29.8l-0.2,0.3c-1-1.6-2.2-3.1-3.6-4.4
			c-4.9-5-11.7-7.7-18.6-7.7c-26.8,0-48.5,21.8-48.6,48.6v16.7L90.9,287.3z M99.2,282.5v-34v-16.6c0-22.2,18.1-40.2,40.3-40.2
			c9.9,0,18,8.1,18,18v7.4c-9.7,2-16.7,10.5-16.7,20.4v8.3c0,5.3-3.3,10-8.3,11.8v-20.1c-0.1-2.3-2.1-4.1-4.4-4
			c-2.1,0.1-3.9,1.8-4,4v22.2c0,5.3-3.3,10-8.3,11.8v-0.7v-22.2c0.1-2.3-1.7-4.3-4-4.4c-2.3-0.1-4.3,1.7-4.4,4c0,0.1,0,0.3,0,0.4
			v22.2C107.5,276,104.2,280.7,99.2,282.5z"/>
		<path class="st0" d="M333.3,248.8v-16.7c0-26.8-21.8-48.6-48.6-48.6c-7,0-13.7,2.8-18.6,7.7c-1.3,1.3-2.5,2.8-3.5,4.4l-0.2-0.3
			l0.2,29.8l0,0c6.9,0,12.5,5.6,12.5,12.5c0,0,0,0,0,0v8.3c0,10.3,7.6,19.1,17.8,20.6c2.7,7.8,9.7,13.3,17.9,14
			c3.6,6.9,10.7,11.2,18.5,11.2c2.3,0,4.2-1.9,4.2-4.2v0L333.3,248.8z M316.7,271v-22.2c-0.1-2.3-2.1-4.1-4.4-4
			c-2.1,0.1-3.9,1.8-4,4v22.9c-5-1.7-8.3-6.4-8.4-11.7v-22.2c-0.1-2.3-2.1-4.1-4.4-4c-2.1,0.1-3.9,1.8-4,4v20.1
			c-5-1.8-8.3-6.5-8.3-11.8v-8.3c0-9.9-7-18.4-16.7-20.4V210c0-9.9,8.1-18,18-18c22.2,0,40.3,18,40.3,40.2v16.7v34
			C320,281,316.7,276.3,316.7,271z"/>
		<path class="st0" d="M281.2,143.9c-16.7-15.2-35.5-15.2-49.6-11.8c-6.6,1.6-13.3,2.4-20,2.5l-1.1,133.1c4,0,7.5,3,8.1,7
			c0.3,1.4,0.5,2.8,0.7,4.4c3.4,22.4,7.1,39.2,21,42.7s20.7-19.5,26.1-43.6s5.7-36,13.3-44.9S312.8,172.8,281.2,143.9z"/>
		<g>
			<defs>
				<path id="SVGID_1_" d="M281.2,143.9c-16.7-15.2-35.5-15.2-49.6-11.8c-6.6,1.6-13.3,2.4-20,2.5l-1.1,133.1c4,0,7.5,3,8.1,7
					c0.3,1.4,0.5,2.8,0.7,4.4c3.4,22.4,7.1,39.2,21,42.7s20.7-19.5,26.1-43.6s5.7-36,13.3-44.9S312.8,172.8,281.2,143.9z"/>
			</defs>
			<clipPath id="SVGID_2_">
				<use xlink:href="#SVGID_1_"  style="overflow:visible;"/>
			</clipPath>
			<g class="st1">
				<g class="st2">
					<path class="st0" d="M214.7,142.9c14.3-4,29.4-6.3,43.9-3.1s28.2,12.8,33,26.8c1.9,5.5,2.4,11.4,2.7,17.2
						c0.5,8.4,0.6,17.1-2,25.1c-4.5,14.3-16.8,24.9-23.6,38.3c-10.8,21.3-6.9,47.7-16.8,69.5c-1.3,3.2-3.3,6.2-5.9,8.5
						c-5.8,4.8-14.8,4.7-19.8,10.3"/>
				</g>
			</g>
		</g>
		<path class="st0" d="M188.8,132.1c-14.1-3.4-33-3.4-49.6,11.8c-31.6,28.9-6.2,80.4,1.5,89.3s7.9,20.7,13.3,44.9
			s12.3,47.1,26.1,43.6s17.5-20.2,21-42.7c0.2-1.5,0.5-3,0.7-4.4c0.7-4.2,4.4-7.2,8.6-7l1.1-133.1
			C203.9,134.7,196.3,133.9,188.8,132.1z M184.8,155.1c-0.4,2.8-3,4.8-5.8,4.5c-1-0.1-23.5-2.6-29.9,22c-0.6,2.3-2.6,3.9-5,3.9
			c-0.4,0-0.9-0.1-1.3-0.2c-2.8-0.7-4.5-3.5-3.7-6.3c0,0,0,0,0,0c6.9-26.9,30-31.2,41.3-29.7C183.2,149.7,185.2,152.3,184.8,155.1
			L184.8,155.1z"/>
		<g>
			<defs>
				<path id="SVGID_3_" d="M188.8,132.1c-14.1-3.4-33-3.4-49.6,11.8c-31.6,28.9-6.2,80.4,1.5,89.3s7.9,20.7,13.3,44.9
					s12.3,47.1,26.1,43.6s17.5-20.2,21-42.7c0.2-1.5,0.5-3,0.7-4.4c0.7-4.2,5.5-7.1,9.8-6.9l1-133.2
					C204.9,134.7,196.3,133.9,188.8,132.1z M184.8,155.1c-0.4,2.8-3,4.8-5.8,4.5c-1-0.1-23.5-2.6-29.9,22c-0.6,2.3-2.6,3.9-5,3.9
					c-0.4,0-0.9-0.1-1.3-0.2c-2.8-0.7-4.5-3.5-3.7-6.3c0,0,0,0,0,0c6.9-26.9,30-31.2,41.3-29.7C183.2,149.7,185.2,152.3,184.8,155.1
					L184.8,155.1z"/>
			</defs>
			<clipPath id="SVGID_4_">
				<use xlink:href="#SVGID_3_"  style="overflow:visible;"/>
			</clipPath>
			<g class="st3">
				<g class="st4">
					<path class="st0" d="M176.9,164.9c-8.5,0.8-16.1,5.7-20.4,13.2"/>
				</g>
				<g class="st4">
					<path class="st0" d="M205.4,262.3c-6.9,5.2-9.6,14.2-11.1,22.7s-2.4,17.5-7.1,24.7c-1.9,2.9-4.8,5.7-8.3,5.5
						c-3.1-0.1-5.6-2.6-7.5-5.1c-11.6-15.5-11.7-36.5-17.8-54.9c-2.3-6.9-5.5-13.4-9.4-19.4c-4-5.8-8.3-11.3-13-16.6l-34-39.9"/>
				</g>
			</g>
		</g>
		<circle class="st0" cx="190.8" cy="157.1" r="3.3"/>
		<path class="st0" d="M185.4,114.5c7.2,3.2,16.7,4.9,26.7,4.9s19.5-1.8,26.7-4.9c12-5.3,13.8-12.6,13.8-16.4s-1.8-11.2-13.9-16.4
			c-7.3-3.2-16.7-4.9-26.7-4.9s-19.5,1.8-26.7,4.9c-12,5.3-13.8,12.6-13.8,16.4S173.4,109.2,185.4,114.5z M190.5,93.3
			c5.6-2.4,13.4-3.8,21.6-3.9s16,1.4,21.6,3.8c4.7,2,6.2,4.2,6.2,4.7s-1.5,2.7-6.2,4.7c-5.6,2.4-13.4,3.8-21.6,3.8s-16-1.4-21.6-3.8
			c-4.7-2.1-6.2-4.2-6.2-4.7S185.8,95.4,190.5,93.3L190.5,93.3z"/>
	</g>
</g>
</svg>
