<?xml version="1.0" encoding="utf-8"?>
<!-- Generator: Adobe Illustrator 24.2.3, SVG Export Plug-In . SVG Version: 6.00 Build 0)  -->
<svg version="1.1" id="Capa_1" xmlns="http://www.w3.org/2000/svg" xmlns:xlink="http://www.w3.org/1999/xlink" x="0px" y="0px"
	 viewBox="0 0 512 512" style="enable-background:new 0 0 512 512;" xml:space="preserve">
<style type="text/css">
	.st0{fill:#F15F24;}
</style>
<g>
	<g>
		<path class="st0" d="M287,0.1c-8.3,0-15,6.7-15,15s6.7,15,15,15c107.5,0,195,87.5,195,195c0,8.3,6.7,15,15,15s15-6.7,15-15
			C512,101,411.1,0.1,287,0.1z"/>
	</g>
</g>
<g>
	<g>
		<path class="st0" d="M287,60.1c-8.3,0-15,6.7-15,15s6.7,15,15,15c74.4,0,135,60.6,135,135c0,8.3,6.7,15,15,15s15-6.7,15-15
			C452,134.1,378,60.1,287,60.1z"/>
	</g>
</g>
<g>
	<g>
		<path class="st0" d="M287,120.1c-8.3,0-15,6.7-15,15s6.7,15,15,15c41.4,0,75,33.6,75,75c0,8.3,6.7,15,15,15s15-6.7,15-15
			C392,167.2,344.9,120.1,287,120.1z"/>
	</g>
</g>
<g>
	<g>
		<path class="st0" d="M287,180.1c-8.3,0-15,6.7-15,15s6.7,15,15,15c8.3,0,15,6.7,15,15c0,8.3,6.7,15,15,15s15-6.7,15-15
			C332,200.2,311.8,180.1,287,180.1z"/>
	</g>
</g>
<g>
	<g>
		<path class="st0" d="M199.3,98.1l-84.8-84.8c-17.5-17.6-46.1-17.5-63.6,0L40.3,23.8l148.5,148.5l10.5-10.5
			c8.5-8.5,13.2-19.8,13.2-31.8C212.5,117.9,207.8,106.6,199.3,98.1z"/>
	</g>
</g>
<g>
	<g>
		<path class="st0" d="M498.8,398.2L414,313.4c-17-17-46.7-17-63.6,0l-10.6,10.6l148.5,148.5l10.5-10.5
			C516.4,444.3,516.4,415.8,498.8,398.2z"/>
	</g>
</g>
<g>
	<g>
		<path class="st0" d="M316.5,343c-16.7,7.9-37.1,5.4-51-8.4l-87.4-88.1c-13.8-13.8-16.3-34.2-8.4-51L20.2,46.1
			c-42.6,65.5-21,233.7,94.2,348.9c113.9,113.9,283.9,140.8,351,97L316.5,343z"/>
	</g>
</g>
</svg>
