<?xml version="1.0" encoding="utf-8"?>
<!-- Generator: Adobe Illustrator 24.2.3, SVG Export Plug-In . SVG Version: 6.00 Build 0)  -->
<svg version="1.1" id="ba65d029-7b6e-4d16-9739-50ea7099b679"
	 xmlns="http://www.w3.org/2000/svg" xmlns:xlink="http://www.w3.org/1999/xlink" x="0px" y="0px" viewBox="0 0 888 618.1"
	 style="enable-background:new 0 0 888 618.1;" xml:space="preserve">
<style type="text/css">
	.st0{fill:#2F2E41;}
	.st1{fill:#FFB9B9;}
	.st2{fill:#E6E6E6;}
	.st3{fill:#F15F24;}
	.st4{fill:#3F3D56;}
	.st5{fill:#FFFFFF;}
	.st6{fill:#9F616A;}
	.st7{opacity:0.2;enable-background:new    ;}
</style>
<path class="st0" d="M742,95l-68.5,0.7c-3.2-15.9-14-57.4-4.3-68.8c0.9-8.9,8.7-15.4,17.6-14.9l0,0C697.3-4.6,715-2.1,727,8.3
	c12,4.2,16.6,11.5,15,21.5c8.9,7.8,10.6,17.3,6.6,28.1L742,95z"/>
<path class="st1" d="M735.4,137.2l-49.4-6.8l-9.9-14.4c13.6-9,18.4-21.6,12.2-38.8l34.2-0.8c-1.6,15.3,3.4,27.1,17.5,34.2
	L735.4,137.2z"/>
<path class="st2" d="M674.3,583l-1.9,25.8c-0.3,4.5,3.1,8.5,7.6,8.8c0.4,0,0.7,0,1.1,0l13.3-0.8c2.3-0.1,4.1-2.1,3.9-4.4
	c0-0.3-0.1-0.5-0.1-0.8l-7.4-29.5L674.3,583z"/>
<path class="st2" d="M717.2,582.2l-7.4,29.5c-0.6,2.2,0.8,4.5,3.1,5.1c0.3,0.1,0.5,0.1,0.8,0.1l13.3,0.8c4.5,0.3,8.4-3.2,8.7-7.7
	c0-0.4,0-0.7,0-1.1l-1.9-25.8L717.2,582.2z"/>
<polygon class="st3" points="734.6,586.6 716.7,584.8 698.9,394.2 692.1,584.2 674.5,583.6 644.9,320.5 758.2,320.5 "/>
<circle class="st1" cx="707.2" cy="55.1" r="34.2"/>
<path class="st3" d="M774.9,326.6l-138.4,1.5c20.5-78.2,32.8-150.8,11.4-200.7l34.2-16.7c16.5,17.2,34.9,15.4,54.7-1.5l32.7,8.4
	C764,182.9,766.5,253.1,774.9,326.6z"/>
<path class="st1" d="M598.5,246l85.9,34.2l19.2,5.6c3.5,1,7.2-1,8.3-4.5c0-0.1,0-0.2,0.1-0.3l0,0c0.8-3.1-0.8-6.4-3.8-7.7l-19.9-6.1
	l-60.1-35l12.5-33.1l-26.2-14.1L598.5,246z"/>
<path class="st3" d="M599.3,183.6c16.3,6.4,29.3,17.3,39.5,31.9l31.9-46.4l-22.8-41.8L599.3,183.6z"/>
<path class="st0" d="M745.8,49.6C731.9,46,718.3,45.5,705,50c-8.5,4.1-18.6,3.7-29.9,0.3V16.3l61,1.6L745.8,49.6z"/>
<path class="st4" d="M684.1,206.1c-5.6,0-10.1,4.5-10.1,10.1l4,83.7c0,5.6,4.5,10.1,10.1,10.1h45.7c5.6,0,10.1-4.5,10.1-10.1l4-83.7
	c0-5.6-4.5-10.1-10.1-10.1H684.1z"/>
<path class="st1" d="M813.9,239.6L739,269.5l-5.7,2.3c-0.2,0.1-0.4,0.1-0.5,0.2l-18.9,5.6c-2.4,0.7-5.8-2.5-7.7-4.8
	c-2-2.2-2.1-5.6-0.2-7.9c0.3-0.3,0.5-0.6,0.9-0.8c0.7-0.6,1.6-0.9,2.5-1.1l18.9-3.7c0.7-0.1,1.3-0.4,1.9-0.7l8.8-5.1l45.8-26.7
	c2.6-1.5,3.8-4.7,2.7-7.6l-8.7-23c-1.1-2.9,0.1-6.2,2.9-7.7l14.5-7.8c3-1.6,6.8-0.5,8.4,2.5c0.2,0.4,0.4,0.9,0.5,1.4l12.6,47.9
	C818.4,235.3,816.8,238.5,813.9,239.6z"/>
<path class="st3" d="M818.2,175.3c-16.3,6.4-29.3,17.3-39.5,31.9l-31.9-46.4l22.8-43.3L818.2,175.3z"/>
<path class="st5" d="M730,85.6c-15,6.2-30.7,6-47,0c4.8-8.1-2.4-14.5-6-22.7l61-1.8C733.3,68.2,726.5,76.6,730,85.6z"/>
<polygon class="st5" points="737.4,62.5 736.6,61.8 737.6,60.8 743.6,53.8 744.4,54.4 738.4,61.4 "/>
<rect x="675" y="57.2" transform="matrix(0.6402 -0.7682 0.7682 0.6402 196.1124 540.9205)" class="st5" width="1" height="7.8"/>
<rect x="724.5" y="76.4" transform="matrix(0.537 -0.8436 0.8436 0.537 275.1212 654.9828)" class="st5" width="19.6" height="1"/>
<rect x="678.2" y="67.1" transform="matrix(0.8437 -0.5369 0.5369 0.8437 64.8525 376.4198)" class="st5" width="1" height="19.6"/>
<path class="st5" d="M741,251.8v18.1l-6.3,2.5c-0.2,0.1-0.4,0.1-0.6,0.2l-21.1,6.2c-2.7,0.8-6.4-2.8-8.6-5.4
	c-2.2-2.5-2.3-6.3-0.2-8.9c0.3-0.3,0.6-0.6,1-0.9c0.8-0.6,1.8-1.1,2.8-1.2l21.1-4.2c0.8-0.1,1.5-0.4,2.2-0.8L741,251.8z"/>
<path class="st4" d="M750.1,187.2h-3.6c0-51.1-10.5-86.7-20.8-86.7l-0.9-3.6c9.2,0,15.1,14.8,18.4,27.3
	C747.7,141,750.1,163.4,750.1,187.2z"/>
<path class="st4" d="M667,174.6h-3.6c0-46.8,10.6-75.9,26.2-75.9l-0.9,3.6C677.9,102.3,667,124.6,667,174.6z"/>
<circle class="st4" cx="748.3" cy="188.1" r="9"/>
<path class="st4" d="M652.6,196.2H649c0-13,7.3-23.5,16.3-23.5v3.6C658.2,176.4,652.6,185.3,652.6,196.2z"/>
<path class="st4" d="M681.5,196.2h-3.6c0-11-5.7-19.9-12.6-19.9v-3.6C674.2,172.7,681.5,183.3,681.5,196.2z"/>
<circle class="st4" cx="679.7" cy="197.1" r="3.6"/>
<circle class="st4" cx="650.8" cy="197.1" r="3.6"/>
<path class="st0" d="M215.3,75.7l-63.5,10.7c-3.2,0.6-6.4-1.4-7.3-4.6c-4.6-16.5-14.2-38.1-4.9-49c1-9.5,9.2-16.5,18.8-15.9l0,0
	c11.3-17.7,30.2-15.1,43-4c12.8,4.4,17.7,12.3,16,23c5.5,4.9,8.5,10.3,9.1,16.3c0.6,6.8-1.8,13.4-6.5,18.4L215.3,75.7z"/>
<path class="st6" d="M205.4,125.7l-49.2-2.9c4.8-11.1,6.7-21.7,4.8-31.8h36.7C197.6,98.7,201.5,112.1,205.4,125.7z"/>
<path class="st2" d="M146.2,580.3l-2,27.6c-0.4,4.8,3.3,9,8.1,9.4c0.4,0,0.8,0,1.2,0l14.2-0.9c2.5-0.2,4.3-2.3,4.2-4.7
	c0-0.3-0.1-0.5-0.1-0.8l-7.9-31.5L146.2,580.3z"/>
<path class="st2" d="M192.1,579.4l-7.9,31.5c-0.6,2.4,0.9,4.8,3.3,5.4c0.3,0.1,0.5,0.1,0.8,0.1l14.2,0.9c4.8,0.3,9-3.4,9.3-8.2
	c0-0.4,0-0.8,0-1.2l-2-27.6L192.1,579.4z"/>
<polygon class="st3" points="210.6,584.1 191.5,582.2 172.5,378.7 165.3,581.5 146.5,580.9 114.8,299.9 235.8,299.9 "/>
<circle class="st6" cx="180.3" cy="66.1" r="36.5"/>
<path class="st0" d="M221.5,48.7c-14.8-2.6-29.4-2.9-43.6,0.3c-9,3-19.9,2.7-31.9,0.2V24.6l65.1,1.2L221.5,48.7z"/>
<path class="st5" d="M204.6,95.4c-16,6.6-32.7,6.4-50.2,0c5.1-8.7-2.5-15.5-6.4-24.2l65.1-1.9C208.2,76.9,200.8,85.9,204.6,95.4z"/>
<rect x="145.9" y="65.1" transform="matrix(0.6402 -0.7682 0.7682 0.6402 -0.538 137.4321)" class="st5" width="1" height="8.3"/>
<rect x="198.7" y="85.6" transform="matrix(0.537 -0.8436 0.8436 0.537 24.2084 216.3254)" class="st5" width="20.9" height="1"/>
<rect x="149.4" y="75.7" transform="matrix(0.8437 -0.5369 0.5369 0.8437 -22.793 93.9446)" class="st5" width="1" height="20.9"/>
<path class="st3" d="M110.9,232.7l-28-17.4l23.9-69.9c2.7-7.2,7.8-13.3,14.4-17.1l8-4.7l0.7,70.5L110.9,232.7z"/>
<path class="st3" d="M231.8,266.7l-4.1-35.5c-0.2-18.7,3-36.8,10.6-53.5l3.9-52.1l-42.4-17.4c-0.1,0.9-0.2,1.7-0.4,2.6l-19.9,9.9
	l-19.4-4.4l0.1-6.2l-38.6,17.4c12.8,59.3,5.8,120.9-16.1,193.7l50.8,13.9l0.4-24.4l45.3-3.2c0.5,7.9,0.8,15.7,1.1,23.3
	c25.6,9.4,26.4,9.3,49.7-4.2C243.4,307.1,236.1,286.8,231.8,266.7z"/>
<polygon class="st3" points="297.1,224.1 271,215.4 229.3,166.9 242.1,125.7 299.9,206.7 "/>
<path class="st2" d="M215.4,261.6c0.9,3.9,4.8,6.3,8.7,5.5l22.1-5L243,248l-22.1,5C217,253.8,214.5,257.7,215.4,261.6L215.4,261.6z"
	/>
<path class="st3" d="M235.3,245.3l12.5,23.2c21.1-5.9,39.4-24.4,56.9-46.3l-4.8-15.4l-29.9,7.7L235.3,245.3z"/>
<polygon class="st2" points="71.8,172.7 95.9,177 150.9,255.2 121.7,248.3 "/>
<path class="st4" d="M67.5,171.7c-1.1,0-2,0.9-2,2.1c0,0.4,0.1,0.8,0.3,1.1l51.4,78c0.3,0.4,0.7,0.7,1.2,0.9l23.9,5.6
	c1.1,0.3,2.2-0.4,2.5-1.5c0.1-0.6,0-1.2-0.3-1.6l-56.5-80.3c-0.3-0.4-0.8-0.7-1.3-0.8l-18.9-3.4C67.8,171.7,67.6,171.7,67.5,171.7z"
	/>
<path class="st2" d="M99.6,227.5l1.4,14.4l22.6-2.2c4-0.4,6.9-3.9,6.5-7.9s-3.9-6.9-7.9-6.5L99.6,227.5z"/>
<path class="st3" d="M80,225.8c0.1,10.2,8.4,18.5,18.6,18.5h3.7l2.7-22.5l-22.4-8L80,225.8z"/>
<polygon class="st5" points="211.4,71.8 210.7,71.1 211.8,70 218.1,62.6 218.9,63.2 212.5,70.7 "/>
<path class="st2" d="M339,615.1h210V360.4c0-13.5-13.3-24.5-29.6-24.5H368.6c-16.3,0-29.6,11-29.6,24.5V615.1z"/>
<path class="st5" d="M355,604.6h178V388.7c0-11.4-11.3-20.7-25.1-20.7H380.1c-13.8,0-25.1,9.3-25.1,20.7V604.6z"/>
<path class="st4" d="M337.4,316.1c-5.2,0-9.4,3.5-9.4,7.8v22.4c0,4.3,4.2,7.8,9.4,7.8h213.2c5.2,0,9.4-3.5,9.4-7.8v-22.4
	c0-4.3-4.2-7.8-9.4-7.8H337.4z"/>
<path class="st4" d="M381.2,576.9c-5.1,0-9.2,4.1-9.2,9.2l0,0c0,5.1,4.1,9.2,9.2,9.2h17.2v-18.4H381.2z"/>
<path class="st3" d="M414.2,576.9h-16.7v18.4h16.7c5.1,0,9.2-4.1,9.2-9.2l0,0C423.4,581,419.3,576.9,414.2,576.9z"/>
<path class="st7" d="M420.2,579.1c1.5,1.7,2.3,3.8,2.3,6l0,0c0,5.1-4.1,9.2-9.2,9.2h-15.8v0.9h16.7c5.1,0,9.2-4.1,9.2-9.2l0,0
	C423.4,583.4,422.2,580.9,420.2,579.1z"/>
<path class="st4" d="M458.9,438.4c-3.5-3.7-9.3-3.9-13-0.4l0,0c-3.7,3.5-3.9,9.3-0.4,13l11.8,12.5l13.4-12.6L458.9,438.4z"/>
<path class="st3" d="M481.5,462.4L470,450.2l-13.4,12.6l11.5,12.2c3.5,3.7,9.3,3.9,13,0.4l0,0C484.8,471.9,485,466.1,481.5,462.4z"
	/>
<path class="st7" d="M484,468.3c-0.2,2.2-1.2,4.2-2.8,5.8l0,0c-3.7,3.5-9.5,3.3-13-0.4l-10.8-11.5l-0.7,0.6l11.5,12.2
	c3.5,3.7,9.3,3.9,13,0.4l0,0C483.1,473.6,484.1,471,484,468.3z"/>
<path class="st4" d="M409.9,467.4c-3.5-3.7-9.3-3.9-13-0.4l0,0c-3.7,3.5-3.9,9.3-0.4,13l11.8,12.5l13.4-12.6L409.9,467.4z"/>
<path class="st3" d="M432.5,491.4L421,479.2l-13.4,12.6l11.5,12.2c3.5,3.7,9.3,3.9,13,0.4l0,0C435.8,500.9,436,495.1,432.5,491.4z"
	/>
<path class="st7" d="M435,497.3c-0.2,2.2-1.2,4.2-2.8,5.8l0,0c-3.7,3.5-9.5,3.3-13-0.4l-10.8-11.5l-0.7,0.6l11.5,12.2
	c3.5,3.7,9.3,3.9,13,0.4l0,0C434.1,502.6,435.1,500,435,497.3z"/>
<path class="st4" d="M458.9,494.4c-3.5-3.7-9.3-3.9-13-0.4l0,0c-3.7,3.5-3.9,9.3-0.4,13l11.8,12.5l13.4-12.6L458.9,494.4z"/>
<path class="st3" d="M481.5,518.4L470,506.2l-13.4,12.6l11.5,12.2c3.5,3.7,9.3,3.9,13,0.4l0,0C484.8,527.9,485,522.1,481.5,518.4z"
	/>
<path class="st7" d="M484,524.3c-0.2,2.2-1.2,4.2-2.8,5.8l0,0c-3.7,3.5-9.5,3.3-13-0.4l-10.8-11.5l-0.7,0.6l11.5,12.2
	c3.5,3.7,9.3,3.9,13,0.4l0,0C483.1,529.6,484.1,527,484,524.3z"/>
<path class="st4" d="M488.8,551.8c3.6-3.5,3.7-9.3,0.2-13l0,0c-3.5-3.6-9.3-3.7-13-0.2l-12.4,12l12.8,13.2L488.8,551.8z"/>
<path class="st3" d="M465,574.8l12-11.6l-12.8-13.2l-12,11.6c-3.6,3.5-3.7,9.3-0.2,13l0,0C455.5,578.2,461.3,578.3,465,574.8z"/>
<path class="st7" d="M459.1,577.3c-2.2-0.2-4.3-1.2-5.8-2.8l0,0c-3.5-3.7-3.4-9.5,0.2-13l11.4-11l-0.7-0.7l-12,11.6
	c-3.6,3.5-3.7,9.3-0.2,13l0,0C453.9,576.5,456.5,577.5,459.1,577.3z"/>
<path class="st4" d="M422.8,522.8c3.6-3.5,3.7-9.3,0.2-13l0,0c-3.5-3.6-9.3-3.7-13-0.2l-12.4,12l12.8,13.2L422.8,522.8z"/>
<path class="st3" d="M399,545.8l12-11.6l-12.8-13.2l-12,11.6c-3.6,3.5-3.7,9.3-0.2,13l0,0C389.5,549.2,395.3,549.3,399,545.8z"/>
<path class="st7" d="M393.1,548.3c-2.2-0.2-4.3-1.2-5.8-2.8l0,0c-3.5-3.7-3.4-9.5,0.2-13l11.4-11l-0.7-0.7l-12,11.6
	c-3.6,3.5-3.7,9.3-0.2,13l0,0C387.9,547.5,390.5,548.5,393.1,548.3z"/>
<path class="st4" d="M516.8,487.8c3.6-3.5,3.7-9.3,0.2-13l0,0c-3.5-3.6-9.3-3.7-13-0.2l-12.4,12l12.8,13.2L516.8,487.8z"/>
<path class="st3" d="M493,510.8l12-11.6l-12.8-13.2l-12,11.6c-3.6,3.5-3.7,9.3-0.2,13l0,0C483.5,514.2,489.3,514.3,493,510.8z"/>
<path class="st7" d="M487.1,513.3c-2.2-0.2-4.3-1.2-5.8-2.8l0,0c-3.5-3.7-3.4-9.5,0.2-13l11.4-11l-0.7-0.7l-12,11.6
	c-3.6,3.5-3.7,9.3-0.2,13l0,0C481.9,512.5,484.5,513.5,487.1,513.3z"/>
<path class="st4" d="M495.9,560.4c-3.5-3.7-9.3-3.9-13-0.4l0,0c-3.7,3.5-3.9,9.3-0.4,13l11.8,12.5l13.4-12.6L495.9,560.4z"/>
<path class="st3" d="M518.5,584.4L507,572.2l-13.4,12.6l11.5,12.2c3.5,3.7,9.3,3.9,13,0.4l0,0C521.8,593.9,522,588.1,518.5,584.4z"
	/>
<path class="st7" d="M521,590.3c-0.2,2.2-1.2,4.2-2.8,5.8l0,0c-3.7,3.5-9.5,3.3-13-0.4l-10.8-11.5l-0.7,0.6l11.5,12.2
	c3.5,3.7,9.3,3.9,13,0.4l0,0C520.1,595.6,521.1,593,521,590.3z"/>
<path class="st4" d="M430.9,559.4c-3.5-3.7-9.3-3.9-13-0.4l0,0c-3.7,3.5-3.9,9.3-0.4,13l11.8,12.5l13.4-12.6L430.9,559.4z"/>
<path class="st3" d="M453.5,583.4L442,571.2l-13.4,12.6l11.5,12.2c3.5,3.7,9.3,3.9,13,0.4l0,0C456.8,592.9,457,587.1,453.5,583.4z"
	/>
<path class="st7" d="M456,589.3c-0.2,2.2-1.2,4.2-2.8,5.8l0,0c-3.7,3.5-9.5,3.3-13-0.4l-10.8-11.5l-0.7,0.6l11.5,12.2
	c3.5,3.7,9.3,3.9,13,0.4l0,0C455.1,594.6,456.1,592,456,589.3z"/>
<path class="st3" d="M449.2,526.4c0,6.3-4.4,11.7-10.6,13c-1.8,0.4-3.6,0.4-5.3,0c-7.2-1.5-11.8-8.5-10.3-15.7
	c1.1-5.2,5.1-9.3,10.3-10.3c1.8-0.4,3.6-0.4,5.3,0C444.7,514.6,449.2,520.1,449.2,526.4z"/>
<path class="st7" d="M438.5,513.4v26c-1.8,0.4-3.6,0.4-5.3,0v-26C435,513,436.8,513,438.5,513.4z"/>
<path class="st3" d="M455.2,473.4c0,6.3-4.4,11.7-10.6,13c-1.8,0.4-3.6,0.4-5.3,0c-7.2-1.5-11.8-8.5-10.3-15.7
	c1.1-5.2,5.1-9.3,10.3-10.3c1.8-0.4,3.6-0.4,5.3,0C450.7,461.6,455.2,467.1,455.2,473.4z"/>
<path class="st7" d="M444.5,460.4v26c-1.8,0.4-3.6,0.4-5.3,0v-26C441,460,442.8,460,444.5,460.4z"/>
<path class="st3" d="M455.2,549.4c0,6.3-4.4,11.7-10.6,13c-1.8,0.4-3.6,0.4-5.3,0c-7.2-1.5-11.8-8.5-10.3-15.7
	c1.1-5.2,5.1-9.3,10.3-10.3c1.8-0.4,3.6-0.4,5.3,0C450.7,537.6,455.2,543.1,455.2,549.4z"/>
<path class="st7" d="M444.5,536.4v26c-1.8,0.4-3.6,0.4-5.3,0v-26C441,536,442.8,536,444.5,536.4z"/>
<path class="st3" d="M488.2,586.4c0,6.3-4.4,11.7-10.6,13c-1.8,0.4-3.6,0.4-5.3,0c-7.2-1.5-11.8-8.5-10.3-15.7
	c1.1-5.2,5.1-9.3,10.3-10.3c1.8-0.4,3.6-0.4,5.3,0C483.7,574.6,488.2,580.1,488.2,586.4z"/>
<path class="st7" d="M477.5,573.4v26c-1.8,0.4-3.6,0.4-5.3,0v-26C474,573,475.8,573,477.5,573.4z"/>
<path class="st3" d="M517.3,518.3c4.5,4.4,5.4,11.3,2,16.7c-1,1.5-2.2,2.8-3.7,3.8c-6,4.2-14.3,2.6-18.4-3.4
	c-3-4.4-3.1-10.1-0.3-14.6c1-1.5,2.2-2.8,3.7-3.8C505.8,513.3,512.8,513.9,517.3,518.3z"/>
<path class="st7" d="M500.6,516.9l18.7,18c-1,1.5-2.2,2.8-3.7,3.8l-18.7-18C497.9,519.2,499.1,517.9,500.6,516.9z"/>
<path class="st3" d="M521.3,547.3c4.5,4.4,5.4,11.3,2,16.7c-1,1.5-2.2,2.8-3.7,3.8c-6,4.2-14.3,2.6-18.4-3.4
	c-3-4.4-3.1-10.1-0.3-14.6c1-1.5,2.2-2.8,3.7-3.8C509.8,542.3,516.8,542.9,521.3,547.3z"/>
<path class="st7" d="M504.6,545.9l18.7,18c-1,1.5-2.2,2.8-3.7,3.8l-18.7-18C501.9,548.2,503.1,546.9,504.6,545.9z"/>
<path class="st3" d="M402.3,554.3c4.5,4.4,5.4,11.3,2,16.7c-1,1.5-2.2,2.8-3.7,3.8c-6,4.2-14.3,2.6-18.4-3.4
	c-3-4.4-3.1-10.1-0.3-14.6c1-1.5,2.2-2.8,3.7-3.8C390.8,549.3,397.8,549.9,402.3,554.3z"/>
<path class="st7" d="M385.6,552.9l18.7,18c-1,1.5-2.2,2.8-3.7,3.8l-18.7-18C382.9,555.2,384.1,553.9,385.6,552.9z"/>
<rect x="354.5" y="316.1" class="st7" width="5" height="37"/>
<rect x="383.5" y="316.1" class="st7" width="5" height="37"/>
<rect x="412.5" y="316.1" class="st7" width="5" height="37"/>
<rect x="441.5" y="316.1" class="st7" width="5" height="37"/>
<rect x="470.5" y="316.1" class="st7" width="5" height="37"/>
<rect x="499.5" y="316.1" class="st7" width="5" height="37"/>
<rect x="528.5" y="316.1" class="st7" width="5" height="37"/>
</svg>
